<?xml version="1.0" ?><svg viewBox="0 0 32 32" xmlns="http://www.w3.org/2000/svg"><title/><g id="Movie"><path d="M21.59,22.43a11.84,11.84,0,0,1-5,4.28h7.74l-2.15-4.28Z"/><path d="M22.43,16A10.72,10.72,0,1,0,11.71,26.71,10.71,10.71,0,0,0,22.43,16ZM4.05,14a1.61,1.61,0,1,1,1.61,1.6A1.61,1.61,0,0,1,4.05,14ZM8,22.7a1.61,1.61,0,1,1,1.61-1.6A1.6,1.6,0,0,1,8,22.7Zm3.75-5.09A1.61,1.61,0,1,1,13.32,16,1.61,1.61,0,0,1,11.71,17.61Zm0-6.43a1.61,1.61,0,1,1,1.61-1.61A1.61,1.61,0,0,1,11.71,11.18ZM15.46,22.7a1.61,1.61,0,1,1,1.61-1.6A1.6,1.6,0,0,1,15.46,22.7Zm2.31-7.13A1.61,1.61,0,1,1,19.38,14,1.6,1.6,0,0,1,17.77,15.57Z"/><polygon points="28.86 22.43 23.42 22.43 25.56 26.71 31 26.71 28.86 22.43"/></g></svg>